<svg xmlns="http://www.w3.org/2000/svg" xmlns:xlink="http://www.w3.org/1999/xlink" width="500" zoomAndPan="magnify" viewBox="0 0 375 374.999991" height="500" preserveAspectRatio="xMidYMid meet" version="1.0"><defs><filter x="0%" y="0%" width="100%" height="100%" id="909dc4ff13"><feColorMatrix values="0 0 0 0 1 0 0 0 0 1 0 0 0 0 1 0 0 0 1 0" color-interpolation-filters="sRGB"/></filter><g/><clipPath id="2a5aa773e5"><path d="M 106.378906 84.066406 L 268.777344 84.066406 L 268.777344 246.464844 L 106.378906 246.464844 Z M 106.378906 84.066406 " clip-rule="nonzero"/></clipPath><clipPath id="3c8814f4d8"><path d="M 187.578125 84.066406 C 142.734375 84.066406 106.378906 120.417969 106.378906 165.265625 C 106.378906 210.109375 142.734375 246.464844 187.578125 246.464844 C 232.425781 246.464844 268.777344 210.109375 268.777344 165.265625 C 268.777344 120.417969 232.425781 84.066406 187.578125 84.066406 Z M 187.578125 84.066406 " clip-rule="nonzero"/></clipPath><mask id="cf76344835"><g filter="url(#909dc4ff13)"><rect x="-37.5" width="450" fill="#000000" y="-37.499999" height="449.999989" fill-opacity="0.68"/></g></mask><clipPath id="00bc497a1d"><path d="M 72 0.0390625 L 82 0.0390625 L 82 13 L 72 13 Z M 72 0.0390625 " clip-rule="nonzero"/></clipPath><clipPath id="676802bd2b"><path d="M 101 0.0390625 L 110 0.0390625 L 110 13 L 101 13 Z M 101 0.0390625 " clip-rule="nonzero"/></clipPath><clipPath id="3df253b1be"><path d="M 141 0.0390625 L 145 0.0390625 L 145 13 L 141 13 Z M 141 0.0390625 " clip-rule="nonzero"/></clipPath><clipPath id="ec59b65547"><path d="M 154 0.0390625 L 158 0.0390625 L 158 13 L 154 13 Z M 154 0.0390625 " clip-rule="nonzero"/></clipPath><clipPath id="b2a180b006"><path d="M 171 0.0390625 L 175 0.0390625 L 175 13 L 171 13 Z M 171 0.0390625 " clip-rule="nonzero"/></clipPath><clipPath id="3bea4bcb89"><path d="M 190 0.0390625 L 193 0.0390625 L 193 13 L 190 13 Z M 190 0.0390625 " clip-rule="nonzero"/></clipPath><clipPath id="df7da7f142"><path d="M 210 0.0390625 L 219 0.0390625 L 219 13 L 210 13 Z M 210 0.0390625 " clip-rule="nonzero"/></clipPath><clipPath id="7a9d5e8662"><rect x="0" width="221" y="0" height="16"/></clipPath></defs><rect x="-37.5" width="450" fill="#ffffff" y="-37.499999" height="449.999989" fill-opacity="1"/><rect x="-37.5" width="450" fill="#ffffff" y="-37.499999" height="449.999989" fill-opacity="1"/><g clip-path="url(#2a5aa773e5)"><g clip-path="url(#3c8814f4d8)"><path fill="#a6a6a6" d="M 106.378906 84.066406 L 268.777344 84.066406 L 268.777344 246.464844 L 106.378906 246.464844 Z M 106.378906 84.066406 " fill-opacity="1" fill-rule="nonzero"/></g></g><g fill="#ffffff" fill-opacity="1"><g transform="translate(150.266941, 171.065504)"><g><path d="M 3.046875 0 L 1.734375 0 L 1.734375 -11.421875 L 3.375 -11.421875 L 8.953125 -2.703125 L 9.140625 -2.734375 L 9.140625 -11.421875 L 10.453125 -11.421875 L 10.453125 0 L 9.046875 0 L 3.234375 -9.34375 L 3.046875 -9.3125 Z M 3.046875 0 "/></g></g></g><g fill="#ffffff" fill-opacity="1"><g transform="translate(162.44366, 171.065504)"><g><path d="M 6.265625 0.171875 C 5.273438 0.171875 4.394531 -0.0390625 3.625 -0.46875 C 2.851562 -0.90625 2.242188 -1.5625 1.796875 -2.4375 C 1.359375 -3.3125 1.140625 -4.40625 1.140625 -5.71875 C 1.140625 -7.019531 1.359375 -8.109375 1.796875 -8.984375 C 2.242188 -9.867188 2.851562 -10.523438 3.625 -10.953125 C 4.394531 -11.378906 5.273438 -11.59375 6.265625 -11.59375 C 7.253906 -11.59375 8.132812 -11.378906 8.90625 -10.953125 C 9.675781 -10.523438 10.28125 -9.867188 10.71875 -8.984375 C 11.164062 -8.109375 11.390625 -7.019531 11.390625 -5.71875 C 11.390625 -4.40625 11.164062 -3.3125 10.71875 -2.4375 C 10.28125 -1.5625 9.675781 -0.90625 8.90625 -0.46875 C 8.132812 -0.0390625 7.253906 0.171875 6.265625 0.171875 Z M 6.265625 -1.078125 C 7.453125 -1.078125 8.363281 -1.445312 9 -2.1875 C 9.632812 -2.9375 9.953125 -4.113281 9.953125 -5.71875 C 9.953125 -7.320312 9.632812 -8.492188 9 -9.234375 C 8.363281 -9.972656 7.453125 -10.34375 6.265625 -10.34375 C 3.804688 -10.34375 2.578125 -8.800781 2.578125 -5.71875 C 2.578125 -2.625 3.804688 -1.078125 6.265625 -1.078125 Z M 6.265625 -1.078125 "/></g></g></g><g fill="#ffffff" fill-opacity="1"><g transform="translate(174.97185, 171.065504)"><g/></g></g><g fill="#ffffff" fill-opacity="1"><g transform="translate(178.892767, 171.065504)"><g><path d="M 3.078125 -11.421875 L 3.078125 -1.109375 L 8.578125 -1.109375 L 8.578125 0 L 1.734375 0 L 1.734375 -11.421875 Z M 3.078125 -11.421875 "/></g></g></g><g fill="#ffffff" fill-opacity="1"><g transform="translate(187.945249, 171.065504)"><g><path d="M 6.265625 0.171875 C 5.273438 0.171875 4.394531 -0.0390625 3.625 -0.46875 C 2.851562 -0.90625 2.242188 -1.5625 1.796875 -2.4375 C 1.359375 -3.3125 1.140625 -4.40625 1.140625 -5.71875 C 1.140625 -7.019531 1.359375 -8.109375 1.796875 -8.984375 C 2.242188 -9.867188 2.851562 -10.523438 3.625 -10.953125 C 4.394531 -11.378906 5.273438 -11.59375 6.265625 -11.59375 C 7.253906 -11.59375 8.132812 -11.378906 8.90625 -10.953125 C 9.675781 -10.523438 10.28125 -9.867188 10.71875 -8.984375 C 11.164062 -8.109375 11.390625 -7.019531 11.390625 -5.71875 C 11.390625 -4.40625 11.164062 -3.3125 10.71875 -2.4375 C 10.28125 -1.5625 9.675781 -0.90625 8.90625 -0.46875 C 8.132812 -0.0390625 7.253906 0.171875 6.265625 0.171875 Z M 6.265625 -1.078125 C 7.453125 -1.078125 8.363281 -1.445312 9 -2.1875 C 9.632812 -2.9375 9.953125 -4.113281 9.953125 -5.71875 C 9.953125 -7.320312 9.632812 -8.492188 9 -9.234375 C 8.363281 -9.972656 7.453125 -10.34375 6.265625 -10.34375 C 3.804688 -10.34375 2.578125 -8.800781 2.578125 -5.71875 C 2.578125 -2.625 3.804688 -1.078125 6.265625 -1.078125 Z M 6.265625 -1.078125 "/></g></g></g><g fill="#ffffff" fill-opacity="1"><g transform="translate(200.473439, 171.065504)"><g><path d="M 6.015625 0.171875 C 5.054688 0.171875 4.207031 -0.046875 3.46875 -0.484375 C 2.738281 -0.929688 2.164062 -1.59375 1.75 -2.46875 C 1.34375 -3.351562 1.140625 -4.4375 1.140625 -5.71875 C 1.140625 -7 1.359375 -8.078125 1.796875 -8.953125 C 2.242188 -9.835938 2.859375 -10.5 3.640625 -10.9375 C 4.421875 -11.375 5.320312 -11.59375 6.34375 -11.59375 C 7.4375 -11.59375 8.332031 -11.394531 9.03125 -11 C 9.738281 -10.601562 10.238281 -10.015625 10.53125 -9.234375 L 9.65625 -8.71875 L 9.453125 -8.71875 C 9.160156 -9.3125 8.757812 -9.738281 8.25 -10 C 7.75 -10.257812 7.113281 -10.390625 6.34375 -10.390625 C 3.832031 -10.390625 2.578125 -8.832031 2.578125 -5.71875 C 2.578125 -4.09375 2.890625 -2.90625 3.515625 -2.15625 C 4.148438 -1.414062 5.035156 -1.046875 6.171875 -1.046875 C 7.210938 -1.046875 7.992188 -1.28125 8.515625 -1.75 C 9.035156 -2.226562 9.296875 -2.976562 9.296875 -4 L 9.296875 -5.015625 L 6.046875 -5.015625 L 6.046875 -6.09375 L 10.59375 -6.09375 L 10.59375 0 L 9.359375 0 L 9.359375 -1.53125 L 9.1875 -1.578125 C 8.882812 -0.984375 8.460938 -0.539062 7.921875 -0.25 C 7.390625 0.03125 6.753906 0.171875 6.015625 0.171875 Z M 6.015625 0.171875 "/></g></g></g><g fill="#ffffff" fill-opacity="1"><g transform="translate(212.345539, 171.065504)"><g><path d="M 6.265625 0.171875 C 5.273438 0.171875 4.394531 -0.0390625 3.625 -0.46875 C 2.851562 -0.90625 2.242188 -1.5625 1.796875 -2.4375 C 1.359375 -3.3125 1.140625 -4.40625 1.140625 -5.71875 C 1.140625 -7.019531 1.359375 -8.109375 1.796875 -8.984375 C 2.242188 -9.867188 2.851562 -10.523438 3.625 -10.953125 C 4.394531 -11.378906 5.273438 -11.59375 6.265625 -11.59375 C 7.253906 -11.59375 8.132812 -11.378906 8.90625 -10.953125 C 9.675781 -10.523438 10.28125 -9.867188 10.71875 -8.984375 C 11.164062 -8.109375 11.390625 -7.019531 11.390625 -5.71875 C 11.390625 -4.40625 11.164062 -3.3125 10.71875 -2.4375 C 10.28125 -1.5625 9.675781 -0.90625 8.90625 -0.46875 C 8.132812 -0.0390625 7.253906 0.171875 6.265625 0.171875 Z M 6.265625 -1.078125 C 7.453125 -1.078125 8.363281 -1.445312 9 -2.1875 C 9.632812 -2.9375 9.953125 -4.113281 9.953125 -5.71875 C 9.953125 -7.320312 9.632812 -8.492188 9 -9.234375 C 8.363281 -9.972656 7.453125 -10.34375 6.265625 -10.34375 C 3.804688 -10.34375 2.578125 -8.800781 2.578125 -5.71875 C 2.578125 -2.625 3.804688 -1.078125 6.265625 -1.078125 Z M 6.265625 -1.078125 "/></g></g></g><g mask="url(#cf76344835)"><g transform="matrix(1, 0, 0, 1, 77, 263)"><g clip-path="url(#7a9d5e8662)"><g fill="#000000" fill-opacity="1"><g transform="translate(1.55746, 12.275734)"><g><path d="M 5.046875 -11.25 C 6.410156 -11.25 7.488281 -10.894531 8.28125 -10.1875 C 9.082031 -9.476562 9.484375 -8.488281 9.484375 -7.21875 C 9.484375 -5.957031 9.085938 -4.957031 8.296875 -4.21875 C 7.503906 -3.488281 6.414062 -3.125 5.03125 -3.125 L 3.625 -3.125 L 3.625 0 L 1.0625 0 L 1.0625 -11.25 Z M 3.625 -5.328125 L 4.96875 -5.328125 C 5.5625 -5.328125 6.03125 -5.484375 6.375 -5.796875 C 6.71875 -6.109375 6.890625 -6.582031 6.890625 -7.21875 C 6.890625 -7.8125 6.71875 -8.265625 6.375 -8.578125 C 6.039062 -8.898438 5.578125 -9.0625 4.984375 -9.0625 L 3.625 -9.0625 Z M 3.625 -5.328125 "/></g></g></g><g fill="#000000" fill-opacity="1"><g transform="translate(11.415, 12.275734)"><g><path d="M 4.78125 0.1875 C 3.945312 0.1875 3.207031 -0.00390625 2.5625 -0.390625 C 1.925781 -0.773438 1.425781 -1.3125 1.0625 -2 C 0.695312 -2.695312 0.515625 -3.515625 0.515625 -4.453125 C 0.515625 -5.359375 0.691406 -6.15625 1.046875 -6.84375 C 1.410156 -7.539062 1.914062 -8.082031 2.5625 -8.46875 C 3.207031 -8.863281 3.953125 -9.0625 4.796875 -9.0625 C 5.640625 -9.0625 6.378906 -8.867188 7.015625 -8.484375 C 7.660156 -8.109375 8.164062 -7.578125 8.53125 -6.890625 C 8.894531 -6.203125 9.078125 -5.394531 9.078125 -4.46875 C 9.078125 -3.550781 8.894531 -2.742188 8.53125 -2.046875 C 8.175781 -1.347656 7.675781 -0.800781 7.03125 -0.40625 C 6.394531 -0.0078125 5.644531 0.1875 4.78125 0.1875 Z M 4.796875 -1.984375 C 5.328125 -1.984375 5.75 -2.195312 6.0625 -2.625 C 6.382812 -3.0625 6.546875 -3.671875 6.546875 -4.453125 C 6.546875 -5.210938 6.382812 -5.804688 6.0625 -6.234375 C 5.75 -6.660156 5.320312 -6.875 4.78125 -6.875 C 4.269531 -6.875 3.847656 -6.664062 3.515625 -6.25 C 3.179688 -5.832031 3.015625 -5.238281 3.015625 -4.46875 C 3.015625 -3.707031 3.179688 -3.101562 3.515625 -2.65625 C 3.847656 -2.207031 4.273438 -1.984375 4.796875 -1.984375 Z M 4.796875 -1.984375 "/></g></g></g><g fill="#000000" fill-opacity="1"><g transform="translate(20.999609, 12.275734)"><g><path d="M 8.984375 -3.015625 L 10.375 -8.859375 L 12.96875 -8.859375 L 10.40625 0 L 7.890625 0 L 6.609375 -5.21875 L 5.296875 0 L 2.796875 0 L 0.234375 -8.859375 L 2.828125 -8.859375 L 4.21875 -3.015625 L 5.59375 -8.859375 L 7.59375 -8.859375 Z M 8.984375 -3.015625 "/></g></g></g><g fill="#000000" fill-opacity="1"><g transform="translate(34.180455, 12.275734)"><g><path d="M 8.21875 -3.671875 L 3 -3.671875 C 3.113281 -3.054688 3.34375 -2.601562 3.6875 -2.3125 C 4.03125 -2.019531 4.472656 -1.875 5.015625 -1.875 C 5.359375 -1.875 5.722656 -1.921875 6.109375 -2.015625 C 6.492188 -2.117188 6.835938 -2.269531 7.140625 -2.46875 L 7.65625 -0.578125 C 7.238281 -0.304688 6.789062 -0.113281 6.3125 0 C 5.832031 0.113281 5.320312 0.171875 4.78125 0.171875 C 3.945312 0.171875 3.207031 -0.015625 2.5625 -0.390625 C 1.925781 -0.773438 1.425781 -1.3125 1.0625 -2 C 0.695312 -2.6875 0.515625 -3.503906 0.515625 -4.453125 C 0.515625 -5.347656 0.679688 -6.140625 1.015625 -6.828125 C 1.359375 -7.523438 1.84375 -8.066406 2.46875 -8.453125 C 3.101562 -8.847656 3.847656 -9.046875 4.703125 -9.046875 C 5.453125 -9.046875 6.109375 -8.878906 6.671875 -8.546875 C 7.242188 -8.210938 7.6875 -7.757812 8 -7.1875 C 8.320312 -6.613281 8.484375 -5.953125 8.484375 -5.203125 C 8.484375 -4.921875 8.457031 -4.648438 8.40625 -4.390625 C 8.363281 -4.128906 8.300781 -3.890625 8.21875 -3.671875 Z M 4.625 -7 C 3.707031 -7 3.164062 -6.398438 3 -5.203125 L 6.078125 -5.21875 C 6.066406 -5.820312 5.929688 -6.269531 5.671875 -6.5625 C 5.410156 -6.851562 5.0625 -7 4.625 -7 Z M 4.625 -7 "/></g></g></g><g fill="#000000" fill-opacity="1"><g transform="translate(43.171048, 12.275734)"><g><path d="M 5.40625 -9.03125 C 5.53125 -9.03125 5.671875 -9.019531 5.828125 -9 C 5.984375 -8.988281 6.132812 -8.960938 6.28125 -8.921875 L 6.046875 -6.53125 C 5.910156 -6.550781 5.75 -6.5625 5.5625 -6.5625 C 5.375 -6.570312 5.210938 -6.578125 5.078125 -6.578125 C 4.546875 -6.578125 4.128906 -6.335938 3.828125 -5.859375 C 3.535156 -5.390625 3.390625 -4.738281 3.390625 -3.90625 L 3.390625 0 L 0.90625 0 L 0.90625 -8.859375 L 3.390625 -8.859375 L 3.390625 -7.765625 C 3.816406 -8.609375 4.488281 -9.03125 5.40625 -9.03125 Z M 5.40625 -9.03125 "/></g></g></g><g fill="#000000" fill-opacity="1"><g transform="translate(49.480519, 12.275734)"><g/></g></g><g fill="#000000" fill-opacity="1"><g transform="translate(53.911602, 12.275734)"><g><path d="M 4.0625 -9.0625 C 5.425781 -9.0625 6.410156 -8.726562 7.015625 -8.0625 C 7.617188 -7.40625 7.921875 -6.503906 7.921875 -5.359375 L 7.921875 0 L 5.46875 0 L 5.46875 -1.09375 C 5.238281 -0.695312 4.914062 -0.382812 4.5 -0.15625 C 4.09375 0.0703125 3.601562 0.1875 3.03125 0.1875 C 2.53125 0.1875 2.078125 0.0703125 1.671875 -0.15625 C 1.273438 -0.382812 0.957031 -0.707031 0.71875 -1.125 C 0.488281 -1.550781 0.375 -2.054688 0.375 -2.640625 C 0.375 -3.460938 0.617188 -4.109375 1.109375 -4.578125 C 1.609375 -5.054688 2.394531 -5.296875 3.46875 -5.296875 C 3.789062 -5.296875 4.132812 -5.285156 4.5 -5.265625 C 4.863281 -5.242188 5.1875 -5.222656 5.46875 -5.203125 L 5.46875 -5.390625 C 5.46875 -5.898438 5.320312 -6.289062 5.03125 -6.5625 C 4.75 -6.84375 4.328125 -6.984375 3.765625 -6.984375 C 3.367188 -6.984375 2.96875 -6.941406 2.5625 -6.859375 C 2.15625 -6.773438 1.789062 -6.660156 1.46875 -6.515625 L 1.21875 -8.578125 C 1.625 -8.722656 2.066406 -8.835938 2.546875 -8.921875 C 3.035156 -9.015625 3.539062 -9.0625 4.0625 -9.0625 Z M 3.890625 -1.828125 C 4.941406 -1.828125 5.46875 -2.46875 5.46875 -3.75 L 5.46875 -3.78125 C 5.257812 -3.800781 5.046875 -3.816406 4.828125 -3.828125 C 4.617188 -3.847656 4.378906 -3.859375 4.109375 -3.859375 C 3.617188 -3.859375 3.265625 -3.78125 3.046875 -3.625 C 2.835938 -3.46875 2.734375 -3.210938 2.734375 -2.859375 C 2.734375 -2.566406 2.835938 -2.320312 3.046875 -2.125 C 3.253906 -1.925781 3.535156 -1.828125 3.890625 -1.828125 Z M 3.890625 -1.828125 "/></g></g></g><g fill="#000000" fill-opacity="1"><g transform="translate(62.64532, 12.275734)"><g><path d="M 5.828125 -9.0625 C 6.742188 -9.0625 7.457031 -8.769531 7.96875 -8.1875 C 8.476562 -7.613281 8.734375 -6.773438 8.734375 -5.671875 L 8.734375 0 L 6.265625 0 L 6.265625 -5.3125 C 6.265625 -6.3125 5.84375 -6.8125 5 -6.8125 C 4.632812 -6.8125 4.304688 -6.691406 4.015625 -6.453125 C 3.734375 -6.210938 3.519531 -5.890625 3.375 -5.484375 L 3.375 0 L 0.90625 0 L 0.90625 -8.859375 L 3.375 -8.859375 L 3.375 -7.734375 C 3.632812 -8.128906 3.96875 -8.445312 4.375 -8.6875 C 4.789062 -8.9375 5.273438 -9.0625 5.828125 -9.0625 Z M 5.828125 -9.0625 "/></g></g></g><g clip-path="url(#00bc497a1d)"><g fill="#000000" fill-opacity="1"><g transform="translate(72.181773, 12.275734)"><g><path d="M 4.125 0.1875 C 3.445312 0.1875 2.84375 0 2.3125 -0.375 C 1.789062 -0.75 1.375 -1.28125 1.0625 -1.96875 C 0.75 -2.664062 0.59375 -3.5 0.59375 -4.46875 C 0.59375 -5.425781 0.742188 -6.25 1.046875 -6.9375 C 1.359375 -7.625 1.78125 -8.148438 2.3125 -8.515625 C 2.84375 -8.878906 3.453125 -9.0625 4.140625 -9.0625 C 4.597656 -9.0625 5.035156 -8.976562 5.453125 -8.8125 C 5.878906 -8.644531 6.25 -8.367188 6.5625 -7.984375 L 6.5625 -11.859375 L 9.03125 -11.859375 L 9.03125 0 L 6.5625 0 L 6.5625 -0.890625 C 6.25 -0.515625 5.878906 -0.238281 5.453125 -0.0625 C 5.023438 0.101562 4.582031 0.1875 4.125 0.1875 Z M 4.78125 -1.96875 C 5.34375 -1.96875 5.78125 -2.195312 6.09375 -2.65625 C 6.40625 -3.125 6.5625 -3.703125 6.5625 -4.390625 C 6.5625 -5.179688 6.40625 -5.789062 6.09375 -6.21875 C 5.78125 -6.65625 5.34375 -6.875 4.78125 -6.875 C 4.289062 -6.875 3.882812 -6.671875 3.5625 -6.265625 C 3.238281 -5.859375 3.078125 -5.257812 3.078125 -4.46875 C 3.078125 -3.644531 3.234375 -3.019531 3.546875 -2.59375 C 3.867188 -2.175781 4.28125 -1.96875 4.78125 -1.96875 Z M 4.78125 -1.96875 "/></g></g></g></g><g fill="#000000" fill-opacity="1"><g transform="translate(82.119593, 12.275734)"><g/></g></g><g fill="#000000" fill-opacity="1"><g transform="translate(86.550676, 12.275734)"><g><path d="M 3.640625 0 L 1.0625 0 L 1.0625 -11.25 L 3.640625 -11.25 Z M 3.640625 0 "/></g></g></g><g fill="#000000" fill-opacity="1"><g transform="translate(91.254678, 12.275734)"><g><path d="M 5.828125 -9.0625 C 6.742188 -9.0625 7.457031 -8.769531 7.96875 -8.1875 C 8.476562 -7.613281 8.734375 -6.773438 8.734375 -5.671875 L 8.734375 0 L 6.265625 0 L 6.265625 -5.3125 C 6.265625 -6.3125 5.84375 -6.8125 5 -6.8125 C 4.632812 -6.8125 4.304688 -6.691406 4.015625 -6.453125 C 3.734375 -6.210938 3.519531 -5.890625 3.375 -5.484375 L 3.375 0 L 0.90625 0 L 0.90625 -8.859375 L 3.375 -8.859375 L 3.375 -7.734375 C 3.632812 -8.128906 3.96875 -8.445312 4.375 -8.6875 C 4.789062 -8.9375 5.273438 -9.0625 5.828125 -9.0625 Z M 5.828125 -9.0625 "/></g></g></g><g clip-path="url(#676802bd2b)"><g fill="#000000" fill-opacity="1"><g transform="translate(100.791131, 12.275734)"><g><path d="M 4.125 0.1875 C 3.445312 0.1875 2.84375 0 2.3125 -0.375 C 1.789062 -0.75 1.375 -1.28125 1.0625 -1.96875 C 0.75 -2.664062 0.59375 -3.5 0.59375 -4.46875 C 0.59375 -5.425781 0.742188 -6.25 1.046875 -6.9375 C 1.359375 -7.625 1.78125 -8.148438 2.3125 -8.515625 C 2.84375 -8.878906 3.453125 -9.0625 4.140625 -9.0625 C 4.597656 -9.0625 5.035156 -8.976562 5.453125 -8.8125 C 5.878906 -8.644531 6.25 -8.367188 6.5625 -7.984375 L 6.5625 -11.859375 L 9.03125 -11.859375 L 9.03125 0 L 6.5625 0 L 6.5625 -0.890625 C 6.25 -0.515625 5.878906 -0.238281 5.453125 -0.0625 C 5.023438 0.101562 4.582031 0.1875 4.125 0.1875 Z M 4.78125 -1.96875 C 5.34375 -1.96875 5.78125 -2.195312 6.09375 -2.65625 C 6.40625 -3.125 6.5625 -3.703125 6.5625 -4.390625 C 6.5625 -5.179688 6.40625 -5.789062 6.09375 -6.21875 C 5.78125 -6.65625 5.34375 -6.875 4.78125 -6.875 C 4.289062 -6.875 3.882812 -6.671875 3.5625 -6.265625 C 3.238281 -5.859375 3.078125 -5.257812 3.078125 -4.46875 C 3.078125 -3.644531 3.234375 -3.019531 3.546875 -2.59375 C 3.867188 -2.175781 4.28125 -1.96875 4.78125 -1.96875 Z M 4.78125 -1.96875 "/></g></g></g></g><g fill="#000000" fill-opacity="1"><g transform="translate(110.728951, 12.275734)"><g><path d="M 6.171875 -3.375 L 6.171875 -8.859375 L 8.640625 -8.859375 L 8.640625 0 L 6.171875 0 L 6.171875 -1.125 C 5.910156 -0.726562 5.570312 -0.410156 5.15625 -0.171875 C 4.75 0.0664062 4.265625 0.1875 3.703125 0.1875 C 2.804688 0.1875 2.097656 -0.0976562 1.578125 -0.671875 C 1.054688 -1.253906 0.796875 -2.097656 0.796875 -3.203125 L 0.796875 -8.859375 L 3.296875 -8.859375 L 3.296875 -3.546875 C 3.296875 -2.546875 3.710938 -2.046875 4.546875 -2.046875 C 4.910156 -2.046875 5.234375 -2.164062 5.515625 -2.40625 C 5.804688 -2.65625 6.023438 -2.976562 6.171875 -3.375 Z M 6.171875 -3.375 "/></g></g></g><g fill="#000000" fill-opacity="1"><g transform="translate(120.265403, 12.275734)"><g><path d="M 3.5625 0.171875 C 2.945312 0.171875 2.378906 0.117188 1.859375 0.015625 C 1.335938 -0.0859375 0.835938 -0.242188 0.359375 -0.453125 L 0.703125 -2.546875 C 1.148438 -2.328125 1.625 -2.15625 2.125 -2.03125 C 2.632812 -1.914062 3.117188 -1.859375 3.578125 -1.859375 C 3.890625 -1.859375 4.15625 -1.910156 4.375 -2.015625 C 4.59375 -2.117188 4.695312 -2.300781 4.6875 -2.5625 C 4.6875 -2.800781 4.570312 -2.992188 4.34375 -3.140625 C 4.125 -3.296875 3.738281 -3.457031 3.1875 -3.625 C 2.21875 -3.875 1.519531 -4.203125 1.09375 -4.609375 C 0.664062 -5.015625 0.453125 -5.578125 0.453125 -6.296875 C 0.460938 -6.921875 0.617188 -7.4375 0.921875 -7.84375 C 1.234375 -8.25 1.644531 -8.550781 2.15625 -8.75 C 2.675781 -8.957031 3.25 -9.0625 3.875 -9.0625 C 4.375 -9.0625 4.863281 -9.003906 5.34375 -8.890625 C 5.820312 -8.785156 6.269531 -8.660156 6.6875 -8.515625 L 6.359375 -6.4375 C 5.992188 -6.625 5.585938 -6.765625 5.140625 -6.859375 C 4.691406 -6.960938 4.257812 -7.015625 3.84375 -7.015625 C 3.1875 -7.015625 2.859375 -6.804688 2.859375 -6.390625 C 2.859375 -6.179688 2.957031 -6 3.15625 -5.84375 C 3.363281 -5.6875 3.726562 -5.53125 4.25 -5.375 C 5.269531 -5.082031 6 -4.71875 6.4375 -4.28125 C 6.882812 -3.84375 7.109375 -3.28125 7.109375 -2.59375 C 7.109375 -1.976562 6.953125 -1.46875 6.640625 -1.0625 C 6.335938 -0.65625 5.914062 -0.347656 5.375 -0.140625 C 4.84375 0.0664062 4.238281 0.171875 3.5625 0.171875 Z M 3.5625 0.171875 "/></g></g></g><g fill="#000000" fill-opacity="1"><g transform="translate(127.746863, 12.275734)"><g><path d="M 4.203125 0.1875 C 3.304688 0.1875 2.613281 -0.0507812 2.125 -0.53125 C 1.644531 -1.019531 1.40625 -1.753906 1.40625 -2.734375 L 1.40625 -6.796875 L 0.421875 -6.796875 L 0.421875 -7.921875 L 1.28125 -8.921875 L 2.890625 -10.796875 L 3.875 -10.796875 L 3.875 -8.859375 L 6.1875 -8.859375 L 6.1875 -6.796875 L 3.875 -6.796875 L 3.875 -3.03125 C 3.875 -2.695312 3.945312 -2.4375 4.09375 -2.25 C 4.25 -2.070312 4.46875 -1.984375 4.75 -1.984375 C 5.101562 -1.984375 5.507812 -2.078125 5.96875 -2.265625 L 6.40625 -0.3125 C 6.039062 -0.132812 5.664062 -0.0078125 5.28125 0.0625 C 4.90625 0.144531 4.546875 0.1875 4.203125 0.1875 Z M 4.203125 0.1875 "/></g></g></g><g fill="#000000" fill-opacity="1"><g transform="translate(134.570082, 12.275734)"><g><path d="M 5.40625 -9.03125 C 5.53125 -9.03125 5.671875 -9.019531 5.828125 -9 C 5.984375 -8.988281 6.132812 -8.960938 6.28125 -8.921875 L 6.046875 -6.53125 C 5.910156 -6.550781 5.75 -6.5625 5.5625 -6.5625 C 5.375 -6.570312 5.210938 -6.578125 5.078125 -6.578125 C 4.546875 -6.578125 4.128906 -6.335938 3.828125 -5.859375 C 3.535156 -5.390625 3.390625 -4.738281 3.390625 -3.90625 L 3.390625 0 L 0.90625 0 L 0.90625 -8.859375 L 3.390625 -8.859375 L 3.390625 -7.765625 C 3.816406 -8.609375 4.488281 -9.03125 5.40625 -9.03125 Z M 5.40625 -9.03125 "/></g></g></g><g clip-path="url(#3df253b1be)"><g fill="#000000" fill-opacity="1"><g transform="translate(140.879553, 12.275734)"><g><path d="M 3.421875 -9.859375 L 0.84375 -9.859375 L 0.84375 -11.921875 L 3.421875 -11.921875 Z M 3.390625 0 L 0.90625 0 L 0.90625 -8.859375 L 3.390625 -8.859375 Z M 3.390625 0 "/></g></g></g></g><g fill="#000000" fill-opacity="1"><g transform="translate(145.150087, 12.275734)"><g><path d="M 4.0625 -9.0625 C 5.425781 -9.0625 6.410156 -8.726562 7.015625 -8.0625 C 7.617188 -7.40625 7.921875 -6.503906 7.921875 -5.359375 L 7.921875 0 L 5.46875 0 L 5.46875 -1.09375 C 5.238281 -0.695312 4.914062 -0.382812 4.5 -0.15625 C 4.09375 0.0703125 3.601562 0.1875 3.03125 0.1875 C 2.53125 0.1875 2.078125 0.0703125 1.671875 -0.15625 C 1.273438 -0.382812 0.957031 -0.707031 0.71875 -1.125 C 0.488281 -1.550781 0.375 -2.054688 0.375 -2.640625 C 0.375 -3.460938 0.617188 -4.109375 1.109375 -4.578125 C 1.609375 -5.054688 2.394531 -5.296875 3.46875 -5.296875 C 3.789062 -5.296875 4.132812 -5.285156 4.5 -5.265625 C 4.863281 -5.242188 5.1875 -5.222656 5.46875 -5.203125 L 5.46875 -5.390625 C 5.46875 -5.898438 5.320312 -6.289062 5.03125 -6.5625 C 4.75 -6.84375 4.328125 -6.984375 3.765625 -6.984375 C 3.367188 -6.984375 2.96875 -6.941406 2.5625 -6.859375 C 2.15625 -6.773438 1.789062 -6.660156 1.46875 -6.515625 L 1.21875 -8.578125 C 1.625 -8.722656 2.066406 -8.835938 2.546875 -8.921875 C 3.035156 -9.015625 3.539062 -9.0625 4.0625 -9.0625 Z M 3.890625 -1.828125 C 4.941406 -1.828125 5.46875 -2.46875 5.46875 -3.75 L 5.46875 -3.78125 C 5.257812 -3.800781 5.046875 -3.816406 4.828125 -3.828125 C 4.617188 -3.847656 4.378906 -3.859375 4.109375 -3.859375 C 3.617188 -3.859375 3.265625 -3.78125 3.046875 -3.625 C 2.835938 -3.46875 2.734375 -3.210938 2.734375 -2.859375 C 2.734375 -2.566406 2.835938 -2.320312 3.046875 -2.125 C 3.253906 -1.925781 3.535156 -1.828125 3.890625 -1.828125 Z M 3.890625 -1.828125 "/></g></g></g><g clip-path="url(#ec59b65547)"><g fill="#000000" fill-opacity="1"><g transform="translate(153.883805, 12.275734)"><g><path d="M 3.390625 0 L 0.921875 0 L 0.921875 -11.859375 L 3.390625 -11.859375 Z M 3.390625 0 "/></g></g></g></g><g fill="#000000" fill-opacity="1"><g transform="translate(158.170396, 12.275734)"><g/></g></g><g fill="#000000" fill-opacity="1"><g transform="translate(162.601479, 12.275734)"><g><path d="M 8.25 0 L 1.0625 0 L 1.0625 -11.25 L 3.65625 -11.25 L 3.65625 -2.21875 L 8.25 -2.21875 Z M 8.25 0 "/></g></g></g><g clip-path="url(#b2a180b006)"><g fill="#000000" fill-opacity="1"><g transform="translate(171.094379, 12.275734)"><g><path d="M 3.421875 -9.859375 L 0.84375 -9.859375 L 0.84375 -11.921875 L 3.421875 -11.921875 Z M 3.390625 0 L 0.90625 0 L 0.90625 -8.859375 L 3.390625 -8.859375 Z M 3.390625 0 "/></g></g></g></g><g fill="#000000" fill-opacity="1"><g transform="translate(175.364914, 12.275734)"><g><path d="M 10.71875 -9.0625 C 11.601562 -9.0625 12.269531 -8.769531 12.71875 -8.1875 C 13.164062 -7.613281 13.390625 -6.789062 13.390625 -5.71875 L 13.390625 0 L 10.921875 0 L 10.921875 -5.328125 C 10.921875 -6.328125 10.566406 -6.828125 9.859375 -6.828125 C 9.503906 -6.828125 9.195312 -6.703125 8.9375 -6.453125 C 8.6875 -6.210938 8.503906 -5.890625 8.390625 -5.484375 L 8.390625 0 L 5.90625 0 L 5.90625 -5.328125 C 5.90625 -5.878906 5.8125 -6.265625 5.625 -6.484375 C 5.445312 -6.710938 5.203125 -6.828125 4.890625 -6.828125 C 4.535156 -6.828125 4.222656 -6.707031 3.953125 -6.46875 C 3.679688 -6.226562 3.488281 -5.910156 3.375 -5.515625 L 3.375 0 L 0.90625 0 L 0.90625 -8.859375 L 3.375 -8.859375 L 3.375 -7.875 C 3.632812 -8.238281 3.957031 -8.523438 4.34375 -8.734375 C 4.738281 -8.953125 5.191406 -9.0625 5.703125 -9.0625 C 6.835938 -9.0625 7.617188 -8.582031 8.046875 -7.625 C 8.335938 -8.0625 8.710938 -8.410156 9.171875 -8.671875 C 9.628906 -8.929688 10.144531 -9.0625 10.71875 -9.0625 Z M 10.71875 -9.0625 "/></g></g></g><g clip-path="url(#3bea4bcb89)"><g fill="#000000" fill-opacity="1"><g transform="translate(189.573256, 12.275734)"><g><path d="M 3.421875 -9.859375 L 0.84375 -9.859375 L 0.84375 -11.921875 L 3.421875 -11.921875 Z M 3.390625 0 L 0.90625 0 L 0.90625 -8.859375 L 3.390625 -8.859375 Z M 3.390625 0 "/></g></g></g></g><g fill="#000000" fill-opacity="1"><g transform="translate(193.843779, 12.275734)"><g><path d="M 4.203125 0.1875 C 3.304688 0.1875 2.613281 -0.0507812 2.125 -0.53125 C 1.644531 -1.019531 1.40625 -1.753906 1.40625 -2.734375 L 1.40625 -6.796875 L 0.421875 -6.796875 L 0.421875 -7.921875 L 1.28125 -8.921875 L 2.890625 -10.796875 L 3.875 -10.796875 L 3.875 -8.859375 L 6.1875 -8.859375 L 6.1875 -6.796875 L 3.875 -6.796875 L 3.875 -3.03125 C 3.875 -2.695312 3.945312 -2.4375 4.09375 -2.25 C 4.25 -2.070312 4.46875 -1.984375 4.75 -1.984375 C 5.101562 -1.984375 5.507812 -2.078125 5.96875 -2.265625 L 6.40625 -0.3125 C 6.039062 -0.132812 5.664062 -0.0078125 5.28125 0.0625 C 4.90625 0.144531 4.546875 0.1875 4.203125 0.1875 Z M 4.203125 0.1875 "/></g></g></g><g fill="#000000" fill-opacity="1"><g transform="translate(200.666998, 12.275734)"><g><path d="M 8.21875 -3.671875 L 3 -3.671875 C 3.113281 -3.054688 3.34375 -2.601562 3.6875 -2.3125 C 4.03125 -2.019531 4.472656 -1.875 5.015625 -1.875 C 5.359375 -1.875 5.722656 -1.921875 6.109375 -2.015625 C 6.492188 -2.117188 6.835938 -2.269531 7.140625 -2.46875 L 7.65625 -0.578125 C 7.238281 -0.304688 6.789062 -0.113281 6.3125 0 C 5.832031 0.113281 5.320312 0.171875 4.78125 0.171875 C 3.945312 0.171875 3.207031 -0.015625 2.5625 -0.390625 C 1.925781 -0.773438 1.425781 -1.3125 1.0625 -2 C 0.695312 -2.6875 0.515625 -3.503906 0.515625 -4.453125 C 0.515625 -5.347656 0.679688 -6.140625 1.015625 -6.828125 C 1.359375 -7.523438 1.84375 -8.066406 2.46875 -8.453125 C 3.101562 -8.847656 3.847656 -9.046875 4.703125 -9.046875 C 5.453125 -9.046875 6.109375 -8.878906 6.671875 -8.546875 C 7.242188 -8.210938 7.6875 -7.757812 8 -7.1875 C 8.320312 -6.613281 8.484375 -5.953125 8.484375 -5.203125 C 8.484375 -4.921875 8.457031 -4.648438 8.40625 -4.390625 C 8.363281 -4.128906 8.300781 -3.890625 8.21875 -3.671875 Z M 4.625 -7 C 3.707031 -7 3.164062 -6.398438 3 -5.203125 L 6.078125 -5.21875 C 6.066406 -5.820312 5.929688 -6.269531 5.671875 -6.5625 C 5.410156 -6.851562 5.0625 -7 4.625 -7 Z M 4.625 -7 "/></g></g></g><g clip-path="url(#df7da7f142)"><g fill="#000000" fill-opacity="1"><g transform="translate(209.65759, 12.275734)"><g><path d="M 4.125 0.1875 C 3.445312 0.1875 2.84375 0 2.3125 -0.375 C 1.789062 -0.75 1.375 -1.28125 1.0625 -1.96875 C 0.75 -2.664062 0.59375 -3.5 0.59375 -4.46875 C 0.59375 -5.425781 0.742188 -6.25 1.046875 -6.9375 C 1.359375 -7.625 1.78125 -8.148438 2.3125 -8.515625 C 2.84375 -8.878906 3.453125 -9.0625 4.140625 -9.0625 C 4.597656 -9.0625 5.035156 -8.976562 5.453125 -8.8125 C 5.878906 -8.644531 6.25 -8.367188 6.5625 -7.984375 L 6.5625 -11.859375 L 9.03125 -11.859375 L 9.03125 0 L 6.5625 0 L 6.5625 -0.890625 C 6.25 -0.515625 5.878906 -0.238281 5.453125 -0.0625 C 5.023438 0.101562 4.582031 0.1875 4.125 0.1875 Z M 4.78125 -1.96875 C 5.34375 -1.96875 5.78125 -2.195312 6.09375 -2.65625 C 6.40625 -3.125 6.5625 -3.703125 6.5625 -4.390625 C 6.5625 -5.179688 6.40625 -5.789062 6.09375 -6.21875 C 5.78125 -6.65625 5.34375 -6.875 4.78125 -6.875 C 4.289062 -6.875 3.882812 -6.671875 3.5625 -6.265625 C 3.238281 -5.859375 3.078125 -5.257812 3.078125 -4.46875 C 3.078125 -3.644531 3.234375 -3.019531 3.546875 -2.59375 C 3.867188 -2.175781 4.28125 -1.96875 4.78125 -1.96875 Z M 4.78125 -1.96875 "/></g></g></g></g></g></g></g></svg>