<svg xmlns="http://www.w3.org/2000/svg" xmlns:xlink="http://www.w3.org/1999/xlink" width="1026" zoomAndPan="magnify" viewBox="0 0 769.5 260.999984" height="348" preserveAspectRatio="xMidYMid meet" version="1.0"><defs><g/><clipPath id="c955977973"><path d="M 75 51 L 101.464844 51 L 101.464844 149.910156 L 75 149.910156 Z M 75 51 " clip-rule="nonzero"/></clipPath><clipPath id="62231591c1"><path d="M 0.28125 50.226562 L 101 50.226562 L 101 78 L 0.28125 78 Z M 0.28125 50.226562 " clip-rule="nonzero"/></clipPath><clipPath id="3071a3e8d7"><path d="M 107.632812 50.207031 L 150.519531 50.207031 L 150.519531 76.980469 L 107.632812 76.980469 Z M 107.632812 50.207031 " clip-rule="nonzero"/></clipPath></defs><g fill="#ffffff" fill-opacity="1"><g transform="translate(82.271048, 227.665007)"><g><path d="M 35.90625 -3.78125 L 35.90625 0 L 6.71875 0 L 6.71875 -41.28125 L 35.03125 -41.28125 L 35.03125 -37.5 L 11.09375 -37.5 L 11.09375 -22.828125 L 32.4375 -22.828125 L 32.4375 -19.109375 L 11.09375 -19.109375 L 11.09375 -3.78125 Z M 35.90625 -3.78125 "/></g></g></g><g fill="#ffffff" fill-opacity="1"><g transform="translate(121.70453, 227.665007)"><g><path d="M 41.21875 -41.28125 L 41.21875 0 L 37.625 0 L 11.09375 -33.5 L 11.09375 0 L 6.71875 0 L 6.71875 -41.28125 L 10.3125 -41.28125 L 36.921875 -7.78125 L 36.921875 -41.28125 Z M 41.21875 -41.28125 "/></g></g></g><g fill="#ffffff" fill-opacity="1"><g transform="translate(169.625931, 227.665007)"><g><path d="M 35.796875 -20.640625 L 39.984375 -20.640625 L 39.984375 -4.890625 C 38.054688 -3.203125 35.773438 -1.90625 33.140625 -1 C 30.503906 -0.09375 27.734375 0.359375 24.828125 0.359375 C 20.703125 0.359375 16.988281 -0.546875 13.6875 -2.359375 C 10.382812 -4.171875 7.785156 -6.675781 5.890625 -9.875 C 4.003906 -13.082031 3.0625 -16.671875 3.0625 -20.640625 C 3.0625 -24.609375 4.003906 -28.191406 5.890625 -31.390625 C 7.785156 -34.597656 10.382812 -37.101562 13.6875 -38.90625 C 16.988281 -40.71875 20.722656 -41.625 24.890625 -41.625 C 28.035156 -41.625 30.921875 -41.125 33.546875 -40.125 C 36.179688 -39.125 38.40625 -37.640625 40.21875 -35.671875 L 37.5 -32.90625 C 34.238281 -36.125 30.09375 -37.734375 25.0625 -37.734375 C 21.71875 -37.734375 18.695312 -36.992188 16 -35.515625 C 13.3125 -34.046875 11.203125 -32.003906 9.671875 -29.390625 C 8.140625 -26.773438 7.375 -23.859375 7.375 -20.640625 C 7.375 -17.410156 8.140625 -14.5 9.671875 -11.90625 C 11.203125 -9.3125 13.300781 -7.265625 15.96875 -5.765625 C 18.644531 -4.273438 21.65625 -3.53125 25 -3.53125 C 29.25 -3.53125 32.847656 -4.59375 35.796875 -6.71875 Z M 35.796875 -20.640625 "/></g></g></g><g fill="#ffffff" fill-opacity="1"><g transform="translate(215.189576, 227.665007)"><g><path d="M 6.71875 -41.28125 L 11.09375 -41.28125 L 11.09375 0 L 6.71875 0 Z M 6.71875 -41.28125 "/></g></g></g><g fill="#ffffff" fill-opacity="1"><g transform="translate(232.990632, 227.665007)"><g><path d="M 41.21875 -41.28125 L 41.21875 0 L 37.625 0 L 11.09375 -33.5 L 11.09375 0 L 6.71875 0 L 6.71875 -41.28125 L 10.3125 -41.28125 L 36.921875 -7.78125 L 36.921875 -41.28125 Z M 41.21875 -41.28125 "/></g></g></g><g fill="#ffffff" fill-opacity="1"><g transform="translate(280.912034, 227.665007)"><g><path d="M 35.90625 -3.78125 L 35.90625 0 L 6.71875 0 L 6.71875 -41.28125 L 35.03125 -41.28125 L 35.03125 -37.5 L 11.09375 -37.5 L 11.09375 -22.828125 L 32.4375 -22.828125 L 32.4375 -19.109375 L 11.09375 -19.109375 L 11.09375 -3.78125 Z M 35.90625 -3.78125 "/></g></g></g><g fill="#ffffff" fill-opacity="1"><g transform="translate(320.345515, 227.665007)"><g><path d="M 35.90625 -3.78125 L 35.90625 0 L 6.71875 0 L 6.71875 -41.28125 L 35.03125 -41.28125 L 35.03125 -37.5 L 11.09375 -37.5 L 11.09375 -22.828125 L 32.4375 -22.828125 L 32.4375 -19.109375 L 11.09375 -19.109375 L 11.09375 -3.78125 Z M 35.90625 -3.78125 "/></g></g></g><g fill="#ffffff" fill-opacity="1"><g transform="translate(359.778997, 227.665007)"><g><path d="M 34.90625 0 L 25.46875 -13.265625 C 24.40625 -13.148438 23.304688 -13.09375 22.171875 -13.09375 L 11.09375 -13.09375 L 11.09375 0 L 6.71875 0 L 6.71875 -41.28125 L 22.171875 -41.28125 C 27.441406 -41.28125 31.566406 -40.019531 34.546875 -37.5 C 37.535156 -34.988281 39.03125 -31.53125 39.03125 -27.125 C 39.03125 -23.90625 38.210938 -21.179688 36.578125 -18.953125 C 34.953125 -16.734375 32.628906 -15.132812 29.609375 -14.15625 L 39.6875 0 Z M 22.046875 -16.8125 C 26.140625 -16.8125 29.265625 -17.710938 31.421875 -19.515625 C 33.585938 -21.328125 34.671875 -23.863281 34.671875 -27.125 C 34.671875 -30.46875 33.585938 -33.03125 31.421875 -34.8125 C 29.265625 -36.601562 26.140625 -37.5 22.046875 -37.5 L 11.09375 -37.5 L 11.09375 -16.8125 Z M 22.046875 -16.8125 "/></g></g></g><g fill="#ffffff" fill-opacity="1"><g transform="translate(402.395449, 227.665007)"><g><path d="M 6.71875 -41.28125 L 11.09375 -41.28125 L 11.09375 0 L 6.71875 0 Z M 6.71875 -41.28125 "/></g></g></g><g fill="#ffffff" fill-opacity="1"><g transform="translate(420.196505, 227.665007)"><g><path d="M 41.21875 -41.28125 L 41.21875 0 L 37.625 0 L 11.09375 -33.5 L 11.09375 0 L 6.71875 0 L 6.71875 -41.28125 L 10.3125 -41.28125 L 36.921875 -7.78125 L 36.921875 -41.28125 Z M 41.21875 -41.28125 "/></g></g></g><g fill="#ffffff" fill-opacity="1"><g transform="translate(468.117907, 227.665007)"><g><path d="M 35.796875 -20.640625 L 39.984375 -20.640625 L 39.984375 -4.890625 C 38.054688 -3.203125 35.773438 -1.90625 33.140625 -1 C 30.503906 -0.09375 27.734375 0.359375 24.828125 0.359375 C 20.703125 0.359375 16.988281 -0.546875 13.6875 -2.359375 C 10.382812 -4.171875 7.785156 -6.675781 5.890625 -9.875 C 4.003906 -13.082031 3.0625 -16.671875 3.0625 -20.640625 C 3.0625 -24.609375 4.003906 -28.191406 5.890625 -31.390625 C 7.785156 -34.597656 10.382812 -37.101562 13.6875 -38.90625 C 16.988281 -40.71875 20.722656 -41.625 24.890625 -41.625 C 28.035156 -41.625 30.921875 -41.125 33.546875 -40.125 C 36.179688 -39.125 38.40625 -37.640625 40.21875 -35.671875 L 37.5 -32.90625 C 34.238281 -36.125 30.09375 -37.734375 25.0625 -37.734375 C 21.71875 -37.734375 18.695312 -36.992188 16 -35.515625 C 13.3125 -34.046875 11.203125 -32.003906 9.671875 -29.390625 C 8.140625 -26.773438 7.375 -23.859375 7.375 -20.640625 C 7.375 -17.410156 8.140625 -14.5 9.671875 -11.90625 C 11.203125 -9.3125 13.300781 -7.265625 15.96875 -5.765625 C 18.644531 -4.273438 21.65625 -3.53125 25 -3.53125 C 29.25 -3.53125 32.847656 -4.59375 35.796875 -6.71875 Z M 35.796875 -20.640625 "/></g></g></g><g fill="#ffffff" fill-opacity="1"><g transform="translate(513.681552, 227.665007)"><g/></g></g><g fill="#ffffff" fill-opacity="1"><g transform="translate(529.124852, 227.665007)"><g><path d="M 6.71875 -41.28125 L 11.09375 -41.28125 L 11.09375 -3.78125 L 34.203125 -3.78125 L 34.203125 0 L 6.71875 0 Z M 6.71875 -41.28125 "/></g></g></g><g fill="#ffffff" fill-opacity="1"><g transform="translate(563.842822, 227.665007)"><g><path d="M 14.75 -37.5 L 0.234375 -37.5 L 0.234375 -41.28125 L 33.609375 -41.28125 L 33.609375 -37.5 L 19.109375 -37.5 L 19.109375 0 L 14.75 0 Z M 14.75 -37.5 "/></g></g></g><g fill="#ffffff" fill-opacity="1"><g transform="translate(597.676588, 227.665007)"><g><path d="M 6.71875 -41.28125 L 23.53125 -41.28125 C 27.894531 -41.28125 31.742188 -40.40625 35.078125 -38.65625 C 38.421875 -36.90625 41.015625 -34.46875 42.859375 -31.34375 C 44.710938 -28.21875 45.640625 -24.648438 45.640625 -20.640625 C 45.640625 -16.628906 44.710938 -13.0625 42.859375 -9.9375 C 41.015625 -6.8125 38.421875 -4.375 35.078125 -2.625 C 31.742188 -0.875 27.894531 0 23.53125 0 L 6.71875 0 Z M 23.296875 -3.78125 C 26.910156 -3.78125 30.070312 -4.492188 32.78125 -5.921875 C 35.5 -7.359375 37.601562 -9.34375 39.09375 -11.875 C 40.59375 -14.414062 41.34375 -17.335938 41.34375 -20.640625 C 41.34375 -23.941406 40.59375 -26.859375 39.09375 -29.390625 C 37.601562 -31.929688 35.5 -33.914062 32.78125 -35.34375 C 30.070312 -36.78125 26.910156 -37.5 23.296875 -37.5 L 11.09375 -37.5 L 11.09375 -3.78125 Z M 23.296875 -3.78125 "/></g></g></g><g fill="#ffffff" fill-opacity="1"><g transform="translate(646.364276, 227.665007)"><g><path d="M 6.25 0.296875 C 5.382812 0.296875 4.644531 -0.015625 4.03125 -0.640625 C 3.425781 -1.273438 3.125 -2.046875 3.125 -2.953125 C 3.125 -3.859375 3.425781 -4.613281 4.03125 -5.21875 C 4.644531 -5.820312 5.382812 -6.125 6.25 -6.125 C 7.113281 -6.125 7.859375 -5.820312 8.484375 -5.21875 C 9.117188 -4.613281 9.4375 -3.859375 9.4375 -2.953125 C 9.4375 -2.046875 9.117188 -1.273438 8.484375 -0.640625 C 7.859375 -0.015625 7.113281 0.296875 6.25 0.296875 Z M 6.25 0.296875 "/></g></g></g><g fill="#ffffff" fill-opacity="1"><g transform="translate(128.483723, 146.857574)"><g><path d="M 63.125 -71.703125 L 53.15625 -48.453125 L 73.09375 -48.453125 Z M 93.71875 0 L 83.1875 -24.640625 L 43.046875 -24.640625 L 32.53125 0 L 1.25 0 L 42.640625 -96.890625 L 83.75 -96.890625 L 125 0 Z M 93.71875 0 "/></g></g></g><g fill="#ffffff" fill-opacity="1"><g transform="translate(246.534407, 146.857574)"><g><path d="M 38.765625 -60.359375 L 86.234375 -60.359375 C 87.984375 -60.359375 89.503906 -60.976562 90.796875 -62.21875 C 92.097656 -63.46875 92.75 -64.96875 92.75 -66.71875 C 92.75 -68.46875 92.097656 -69.96875 90.796875 -71.21875 C 89.503906 -72.46875 87.984375 -73.09375 86.234375 -73.09375 L 38.765625 -73.09375 Z M 9.96875 0 L 9.96875 -96.890625 L 91.359375 -96.890625 C 96.890625 -96.890625 101.941406 -95.53125 106.515625 -92.8125 C 111.085938 -90.09375 114.734375 -86.445312 117.453125 -81.875 C 120.171875 -77.3125 121.53125 -72.257812 121.53125 -66.71875 C 121.53125 -62.289062 120.628906 -58.160156 118.828125 -54.328125 C 117.035156 -50.503906 114.59375 -47.179688 111.5 -44.359375 C 108.40625 -41.546875 104.828125 -39.445312 100.765625 -38.0625 L 121.53125 0 L 88.734375 0 L 68.9375 -36.546875 L 38.765625 -36.546875 L 38.765625 0 Z M 9.96875 0 "/></g></g></g><g fill="#ffffff" fill-opacity="1"><g transform="translate(365.415461, 146.857574)"><g><path d="M 94.265625 0 L 38.765625 -60.21875 L 38.765625 0 L 9.96875 0 L 9.96875 -96.890625 L 37.234375 -96.890625 L 92.75 -36.6875 L 92.75 -96.890625 L 121.53125 -96.890625 L 121.53125 0 Z M 94.265625 0 "/></g></g></g><g fill="#ffffff" fill-opacity="1"><g transform="translate(488.586857, 146.857574)"><g><path d="M 9.96875 0 L 9.96875 -96.890625 L 121.53125 -96.890625 L 121.53125 -73.09375 L 38.765625 -73.09375 L 38.765625 -60.359375 L 107.140625 -60.359375 L 107.140625 -36.546875 L 38.765625 -36.546875 L 38.765625 -23.8125 L 121.53125 -23.8125 L 121.53125 0 Z M 9.96875 0 "/></g></g></g><g fill="#ffffff" fill-opacity="1"><g transform="translate(608.159896, 146.857574)"><g><path d="M 38.765625 -60.359375 L 86.234375 -60.359375 C 87.984375 -60.359375 89.503906 -60.976562 90.796875 -62.21875 C 92.097656 -63.46875 92.75 -64.96875 92.75 -66.71875 C 92.75 -68.46875 92.097656 -69.96875 90.796875 -71.21875 C 89.503906 -72.46875 87.984375 -73.09375 86.234375 -73.09375 L 38.765625 -73.09375 Z M 9.96875 0 L 9.96875 -96.890625 L 91.359375 -96.890625 C 96.890625 -96.890625 101.941406 -95.53125 106.515625 -92.8125 C 111.085938 -90.09375 114.734375 -86.445312 117.453125 -81.875 C 120.171875 -77.3125 121.53125 -72.257812 121.53125 -66.71875 C 121.53125 -62.289062 120.628906 -58.160156 118.828125 -54.328125 C 117.035156 -50.503906 114.59375 -47.179688 111.5 -44.359375 C 108.40625 -41.546875 104.828125 -39.445312 100.765625 -38.0625 L 121.53125 0 L 88.734375 0 L 68.9375 -36.546875 L 38.765625 -36.546875 L 38.765625 0 Z M 9.96875 0 "/></g></g></g><g clip-path="url(#c955977973)"><path fill="#bf2928" d="M 91.289062 146.949219 C 91.289062 146.371094 91.757812 145.902344 92.335938 145.902344 L 102.417969 145.902344 L 102.417969 140.359375 L 96.8125 140.359375 C 96.234375 140.359375 95.765625 139.890625 95.765625 139.3125 C 95.765625 138.734375 96.234375 138.265625 96.8125 138.265625 L 102.417969 138.265625 L 102.417969 132.71875 L 96.8125 132.71875 C 96.234375 132.71875 95.765625 132.25 95.765625 131.671875 C 95.765625 131.09375 96.234375 130.625 96.8125 130.625 L 102.417969 130.625 L 102.417969 125.082031 L 96.8125 125.082031 C 96.234375 125.082031 95.765625 124.613281 95.765625 124.035156 C 95.765625 123.453125 96.234375 122.984375 96.8125 122.984375 L 102.417969 122.984375 L 102.417969 117.441406 L 96.8125 117.441406 C 96.234375 117.441406 95.765625 116.972656 95.765625 116.394531 C 95.765625 115.816406 96.234375 115.347656 96.8125 115.347656 L 102.417969 115.347656 L 102.417969 109.804688 L 92.335938 109.804688 C 91.757812 109.804688 91.289062 109.332031 91.289062 108.753906 C 91.289062 108.175781 91.757812 107.707031 92.335938 107.707031 L 102.417969 107.707031 L 102.417969 102.164062 L 96.8125 102.164062 C 96.234375 102.164062 95.765625 101.695312 95.765625 101.117188 C 95.765625 100.539062 96.234375 100.070312 96.8125 100.070312 L 102.417969 100.070312 L 102.417969 94.523438 L 96.8125 94.523438 C 96.234375 94.523438 95.765625 94.054688 95.765625 93.476562 C 95.765625 92.898438 96.234375 92.429688 96.8125 92.429688 L 102.417969 92.429688 L 102.417969 86.886719 L 96.8125 86.886719 C 96.234375 86.886719 95.765625 86.417969 95.765625 85.839844 C 95.765625 85.261719 96.234375 84.789062 96.8125 84.789062 L 102.417969 84.789062 L 102.417969 79.246094 L 96.8125 79.246094 C 96.234375 79.246094 95.765625 78.777344 95.765625 78.199219 C 95.765625 77.621094 96.234375 77.152344 96.8125 77.152344 L 102.417969 77.152344 L 102.417969 71.609375 L 92.335938 71.609375 C 91.757812 71.609375 91.289062 71.140625 91.289062 70.558594 C 91.289062 69.984375 91.757812 69.511719 92.335938 69.511719 L 102.417969 69.511719 L 102.417969 51.6875 L 75.042969 79.058594 L 75.042969 151.804688 C 75.042969 152.394531 75.523438 152.875 76.113281 152.875 L 101.347656 152.875 C 101.9375 152.875 102.417969 152.394531 102.417969 151.804688 L 102.417969 147.996094 L 92.335938 147.996094 C 91.757812 147.996094 91.289062 147.527344 91.289062 146.949219 " fill-opacity="1" fill-rule="nonzero"/></g><g clip-path="url(#62231591c1)"><path fill="#bf2928" d="M 82.738281 50.203125 L 82.738281 60.285156 C 82.738281 60.863281 82.269531 61.335938 81.691406 61.335938 C 81.109375 61.335938 80.640625 60.863281 80.640625 60.285156 L 80.640625 50.203125 L 75.097656 50.203125 L 75.097656 55.808594 C 75.097656 56.386719 74.628906 56.855469 74.050781 56.855469 C 73.472656 56.855469 73.003906 56.386719 73.003906 55.808594 L 73.003906 50.203125 L 67.460938 50.203125 L 67.460938 55.808594 C 67.460938 56.386719 66.988281 56.855469 66.410156 56.855469 C 65.832031 56.855469 65.363281 56.386719 65.363281 55.808594 L 65.363281 50.203125 L 59.820312 50.203125 L 59.820312 55.808594 C 59.820312 56.386719 59.351562 56.855469 58.773438 56.855469 C 58.195312 56.855469 57.726562 56.386719 57.726562 55.808594 L 57.726562 50.203125 L 52.179688 50.203125 L 52.179688 55.808594 C 52.179688 56.386719 51.710938 56.855469 51.132812 56.855469 C 50.554688 56.855469 50.085938 56.386719 50.085938 55.808594 L 50.085938 50.203125 L 44.542969 50.203125 L 44.542969 60.285156 C 44.542969 60.863281 44.074219 61.335938 43.496094 61.335938 C 42.914062 61.335938 42.449219 60.863281 42.449219 60.285156 L 42.449219 50.203125 L 36.902344 50.203125 L 36.902344 55.808594 C 36.902344 56.386719 36.433594 56.855469 35.855469 56.855469 C 35.277344 56.855469 34.808594 56.386719 34.808594 55.808594 L 34.808594 50.203125 L 29.265625 50.203125 L 29.265625 55.808594 C 29.265625 56.386719 28.796875 56.855469 28.21875 56.855469 C 27.636719 56.855469 27.167969 56.386719 27.167969 55.808594 L 27.167969 50.203125 L 21.625 50.203125 L 21.625 55.808594 C 21.625 56.386719 21.15625 56.855469 20.578125 56.855469 C 20 56.855469 19.53125 56.386719 19.53125 55.808594 L 19.53125 50.203125 L 13.988281 50.203125 L 13.988281 55.808594 C 13.988281 56.386719 13.519531 56.855469 12.9375 56.855469 C 12.359375 56.855469 11.890625 56.386719 11.890625 55.808594 L 11.890625 50.203125 L 6.347656 50.203125 L 6.347656 60.285156 C 6.347656 60.863281 5.878906 61.335938 5.300781 61.335938 C 4.722656 61.335938 4.253906 60.863281 4.253906 60.285156 L 4.253906 50.203125 L 0.816406 50.203125 C 0.226562 50.203125 -0.253906 50.683594 -0.253906 51.273438 L -0.253906 76.507812 C -0.253906 77.097656 0.226562 77.578125 0.816406 77.578125 L 73.5625 77.578125 L 100.9375 50.203125 L 82.738281 50.203125 " fill-opacity="1" fill-rule="nonzero"/></g><g clip-path="url(#3071a3e8d7)"><path fill="#ffffff" d="M 150.519531 50.207031 L 150.519531 76.980469 L 107.640625 76.980469 L 107.640625 50.207031 Z M 150.519531 50.207031 " fill-opacity="1" fill-rule="nonzero"/></g><path stroke-linecap="butt" transform="matrix(0, -0.749513, 0.749513, 0, 39.92612, 148.888954)" fill="none" stroke-linejoin="miter" d="M -0.00222898 15.999522 L 89.686222 15.999522 " stroke="#ffffff" stroke-width="32" stroke-opacity="1" stroke-miterlimit="4"/></svg>