<svg xmlns="http://www.w3.org/2000/svg" xmlns:xlink="http://www.w3.org/1999/xlink" width="1026" zoomAndPan="magnify" viewBox="0 0 769.5 221.999995" height="296" preserveAspectRatio="xMidYMid meet" version="1.0"><defs><g/><clipPath id="01d1e41992"><path d="M 75 51 L 101.464844 51 L 101.464844 149.898438 L 75 149.898438 Z M 75 51 " clip-rule="nonzero"/></clipPath><clipPath id="659ccc68a3"><path d="M 0.28125 50.210938 L 101 50.210938 L 101 78 L 0.28125 78 Z M 0.28125 50.210938 " clip-rule="nonzero"/></clipPath><clipPath id="a32aeac54a"><path d="M 107.632812 50.195312 L 150.519531 50.195312 L 150.519531 76.96875 L 107.632812 76.96875 Z M 107.632812 50.195312 " clip-rule="nonzero"/></clipPath></defs><g fill="#ffffff" fill-opacity="1"><g transform="translate(128.483723, 146.844927)"><g><path d="M 63.125 -71.703125 L 53.15625 -48.453125 L 73.09375 -48.453125 Z M 93.71875 0 L 83.1875 -24.640625 L 43.046875 -24.640625 L 32.53125 0 L 1.25 0 L 42.640625 -96.890625 L 83.75 -96.890625 L 125 0 Z M 93.71875 0 "/></g></g></g><g fill="#ffffff" fill-opacity="1"><g transform="translate(246.534407, 146.844927)"><g><path d="M 38.765625 -60.359375 L 86.234375 -60.359375 C 87.984375 -60.359375 89.503906 -60.976562 90.796875 -62.21875 C 92.097656 -63.46875 92.75 -64.96875 92.75 -66.71875 C 92.75 -68.46875 92.097656 -69.96875 90.796875 -71.21875 C 89.503906 -72.46875 87.984375 -73.09375 86.234375 -73.09375 L 38.765625 -73.09375 Z M 9.96875 0 L 9.96875 -96.890625 L 91.359375 -96.890625 C 96.890625 -96.890625 101.941406 -95.53125 106.515625 -92.8125 C 111.085938 -90.09375 114.734375 -86.445312 117.453125 -81.875 C 120.171875 -77.3125 121.53125 -72.257812 121.53125 -66.71875 C 121.53125 -62.289062 120.628906 -58.160156 118.828125 -54.328125 C 117.035156 -50.503906 114.59375 -47.179688 111.5 -44.359375 C 108.40625 -41.546875 104.828125 -39.445312 100.765625 -38.0625 L 121.53125 0 L 88.734375 0 L 68.9375 -36.546875 L 38.765625 -36.546875 L 38.765625 0 Z M 9.96875 0 "/></g></g></g><g fill="#ffffff" fill-opacity="1"><g transform="translate(365.415461, 146.844927)"><g><path d="M 94.265625 0 L 38.765625 -60.21875 L 38.765625 0 L 9.96875 0 L 9.96875 -96.890625 L 37.234375 -96.890625 L 92.75 -36.6875 L 92.75 -96.890625 L 121.53125 -96.890625 L 121.53125 0 Z M 94.265625 0 "/></g></g></g><g fill="#ffffff" fill-opacity="1"><g transform="translate(488.586857, 146.844927)"><g><path d="M 9.96875 0 L 9.96875 -96.890625 L 121.53125 -96.890625 L 121.53125 -73.09375 L 38.765625 -73.09375 L 38.765625 -60.359375 L 107.140625 -60.359375 L 107.140625 -36.546875 L 38.765625 -36.546875 L 38.765625 -23.8125 L 121.53125 -23.8125 L 121.53125 0 Z M 9.96875 0 "/></g></g></g><g fill="#ffffff" fill-opacity="1"><g transform="translate(608.159896, 146.844927)"><g><path d="M 38.765625 -60.359375 L 86.234375 -60.359375 C 87.984375 -60.359375 89.503906 -60.976562 90.796875 -62.21875 C 92.097656 -63.46875 92.75 -64.96875 92.75 -66.71875 C 92.75 -68.46875 92.097656 -69.96875 90.796875 -71.21875 C 89.503906 -72.46875 87.984375 -73.09375 86.234375 -73.09375 L 38.765625 -73.09375 Z M 9.96875 0 L 9.96875 -96.890625 L 91.359375 -96.890625 C 96.890625 -96.890625 101.941406 -95.53125 106.515625 -92.8125 C 111.085938 -90.09375 114.734375 -86.445312 117.453125 -81.875 C 120.171875 -77.3125 121.53125 -72.257812 121.53125 -66.71875 C 121.53125 -62.289062 120.628906 -58.160156 118.828125 -54.328125 C 117.035156 -50.503906 114.59375 -47.179688 111.5 -44.359375 C 108.40625 -41.546875 104.828125 -39.445312 100.765625 -38.0625 L 121.53125 0 L 88.734375 0 L 68.9375 -36.546875 L 38.765625 -36.546875 L 38.765625 0 Z M 9.96875 0 "/></g></g></g><g clip-path="url(#01d1e41992)"><path fill="#bf2928" d="M 91.289062 146.9375 C 91.289062 146.359375 91.757812 145.890625 92.335938 145.890625 L 102.417969 145.890625 L 102.417969 140.347656 L 96.8125 140.347656 C 96.234375 140.347656 95.765625 139.878906 95.765625 139.296875 C 95.765625 138.71875 96.234375 138.25 96.8125 138.25 L 102.417969 138.25 L 102.417969 132.707031 L 96.8125 132.707031 C 96.234375 132.707031 95.765625 132.238281 95.765625 131.660156 C 95.765625 131.082031 96.234375 130.609375 96.8125 130.609375 L 102.417969 130.609375 L 102.417969 125.070312 L 96.8125 125.070312 C 96.234375 125.070312 95.765625 124.597656 95.765625 124.019531 C 95.765625 123.441406 96.234375 122.972656 96.8125 122.972656 L 102.417969 122.972656 L 102.417969 117.429688 L 96.8125 117.429688 C 96.234375 117.429688 95.765625 116.960938 95.765625 116.382812 C 95.765625 115.804688 96.234375 115.332031 96.8125 115.332031 L 102.417969 115.332031 L 102.417969 109.789062 L 92.335938 109.789062 C 91.757812 109.789062 91.289062 109.320312 91.289062 108.742188 C 91.289062 108.164062 91.757812 107.695312 92.335938 107.695312 L 102.417969 107.695312 L 102.417969 102.152344 L 96.8125 102.152344 C 96.234375 102.152344 95.765625 101.683594 95.765625 101.105469 C 95.765625 100.523438 96.234375 100.054688 96.8125 100.054688 L 102.417969 100.054688 L 102.417969 94.511719 L 96.8125 94.511719 C 96.234375 94.511719 95.765625 94.042969 95.765625 93.464844 C 95.765625 92.886719 96.234375 92.417969 96.8125 92.417969 L 102.417969 92.417969 L 102.417969 86.875 L 96.8125 86.875 C 96.234375 86.875 95.765625 86.402344 95.765625 85.824219 C 95.765625 85.246094 96.234375 84.777344 96.8125 84.777344 L 102.417969 84.777344 L 102.417969 79.234375 L 96.8125 79.234375 C 96.234375 79.234375 95.765625 78.765625 95.765625 78.1875 C 95.765625 77.609375 96.234375 77.140625 96.8125 77.140625 L 102.417969 77.140625 L 102.417969 71.597656 L 92.335938 71.597656 C 91.757812 71.597656 91.289062 71.125 91.289062 70.546875 C 91.289062 69.96875 91.757812 69.5 92.335938 69.5 L 102.417969 69.5 L 102.417969 51.671875 L 75.042969 79.046875 L 75.042969 151.792969 C 75.042969 152.382812 75.523438 152.863281 76.113281 152.863281 L 101.347656 152.863281 C 101.9375 152.863281 102.417969 152.382812 102.417969 151.792969 L 102.417969 147.984375 L 92.335938 147.984375 C 91.757812 147.984375 91.289062 147.515625 91.289062 146.9375 " fill-opacity="1" fill-rule="nonzero"/></g><g clip-path="url(#659ccc68a3)"><path fill="#bf2928" d="M 82.738281 50.191406 L 82.738281 60.273438 C 82.738281 60.851562 82.269531 61.320312 81.691406 61.320312 C 81.109375 61.320312 80.640625 60.851562 80.640625 60.273438 L 80.640625 50.191406 L 75.097656 50.191406 L 75.097656 55.796875 C 75.097656 56.375 74.628906 56.84375 74.050781 56.84375 C 73.472656 56.84375 73.003906 56.375 73.003906 55.796875 L 73.003906 50.191406 L 67.460938 50.191406 L 67.460938 55.796875 C 67.460938 56.375 66.988281 56.84375 66.410156 56.84375 C 65.832031 56.84375 65.363281 56.375 65.363281 55.796875 L 65.363281 50.191406 L 59.820312 50.191406 L 59.820312 55.796875 C 59.820312 56.375 59.351562 56.84375 58.773438 56.84375 C 58.195312 56.84375 57.726562 56.375 57.726562 55.796875 L 57.726562 50.191406 L 52.179688 50.191406 L 52.179688 55.796875 C 52.179688 56.375 51.710938 56.84375 51.132812 56.84375 C 50.554688 56.84375 50.085938 56.375 50.085938 55.796875 L 50.085938 50.191406 L 44.542969 50.191406 L 44.542969 60.273438 C 44.542969 60.851562 44.074219 61.320312 43.496094 61.320312 C 42.914062 61.320312 42.449219 60.851562 42.449219 60.273438 L 42.449219 50.191406 L 36.902344 50.191406 L 36.902344 55.796875 C 36.902344 56.375 36.433594 56.84375 35.855469 56.84375 C 35.277344 56.84375 34.808594 56.375 34.808594 55.796875 L 34.808594 50.191406 L 29.265625 50.191406 L 29.265625 55.796875 C 29.265625 56.375 28.796875 56.84375 28.21875 56.84375 C 27.636719 56.84375 27.167969 56.375 27.167969 55.796875 L 27.167969 50.191406 L 21.625 50.191406 L 21.625 55.796875 C 21.625 56.375 21.15625 56.84375 20.578125 56.84375 C 20 56.84375 19.53125 56.375 19.53125 55.796875 L 19.53125 50.191406 L 13.988281 50.191406 L 13.988281 55.796875 C 13.988281 56.375 13.519531 56.84375 12.9375 56.84375 C 12.359375 56.84375 11.890625 56.375 11.890625 55.796875 L 11.890625 50.191406 L 6.347656 50.191406 L 6.347656 60.273438 C 6.347656 60.851562 5.878906 61.320312 5.300781 61.320312 C 4.722656 61.320312 4.253906 60.851562 4.253906 60.273438 L 4.253906 50.191406 L 0.816406 50.191406 C 0.226562 50.191406 -0.253906 50.671875 -0.253906 51.261719 L -0.253906 76.496094 C -0.253906 77.085938 0.226562 77.566406 0.816406 77.566406 L 73.5625 77.566406 L 100.9375 50.191406 L 82.738281 50.191406 " fill-opacity="1" fill-rule="nonzero"/></g><g clip-path="url(#a32aeac54a)"><path fill="#ffffff" d="M 150.519531 50.195312 L 150.519531 76.96875 L 107.640625 76.96875 L 107.640625 50.195312 Z M 150.519531 50.195312 " fill-opacity="1" fill-rule="nonzero"/></g><path stroke-linecap="butt" transform="matrix(0, -0.749513, 0.749513, 0, 39.92612, 148.876308)" fill="none" stroke-linejoin="miter" d="M 0.00174448 15.999522 L 89.684984 15.999522 " stroke="#ffffff" stroke-width="32" stroke-opacity="1" stroke-miterlimit="4"/></svg>